999
dxfrw 0.6.3
  0
SECTION
  2
HEADER
  9
$ACADVER
  1
AC1021
  9
$DWGCODEPAGE
  3
ANSI_1252
  9
$INSBASE
 10
0
 20
0
 30
0
  9
$EXTMIN
 10
-193.0660171779821
 20
-138.0660171779821
 30
0
  9
$EXTMAX
 10
100
 20
74.06601717798213
 30
0
  9
$LIMMIN
 10
0
 20
0
  9
$LIMMAX
 10
420
 20
297
  9
$ORTHOMODE
 70
    0
  9
$REGENMODE
 70
    1
  9
$FILLMODE
 70
    1
  9
$QTEXTMODE
 70
    0
  9
$MIRRTEXT
 70
    0
  9
$LTSCALE
 40
1
  9
$ATTMODE
 70
    0
  9
$TEXTSIZE
 40
2.5
  9
$TRACEWID
 40
15.68
  9
$TEXTSTYLE
  7
STANDARD
  9
$CLAYER
  8
draft
  9
$CELTYPE
  6
BYLAYER
  9
$CECOLOR
 62
  256
  9
$CELTSCALE
 40
1
  9
$DISPSILH
 70
    0
  9
$DIMSCALE
 40
1
  9
$DIMASZ
 40
2.5
  9
$DIMEXO
 40
0.625
  9
$DIMDLI
 40
3.75
  9
$DIMRND
 40
0
  9
$DIMDLE
 40
0
  9
$DIMEXE
 40
1.25
  9
$DIMTP
 40
0
  9
$DIMTM
 40
0
  9
$DIMTXT
 40
2.5
  9
$DIMCEN
 40
2.5
  9
$DIMTSZ
 40
0
  9
$DIMTOL
 70
    0
  9
$DIMLIM
 70
    0
  9
$DIMTIH
 70
    0
  9
$DIMTOH
 70
    0
  9
$DIMSE1
 70
    0
  9
$DIMSE2
 70
    0
  9
$DIMTAD
 70
    1
  9
$DIMZIN
 70
    8
  9
$DIMBLK
  1

  9
$DIMASO
 70
    1
  9
$DIMSHO
 70
    1
  9
$DIMPOST
  1

  9
$DIMAPOST
  1

  9
$DIMALT
 70
    0
  9
$DIMALTD
 70
    3
  9
$DIMALTF
 40
0.03937
  9
$DIMLFAC
 40
1
  9
$DIMTOFL
 70
    1
  9
$DIMTVP
 40
0
  9
$DIMTIX
 70
    0
  9
$DIMSOXD
 70
    0
  9
$DIMSAH
 70
    0
  9
$DIMBLK1
  1

  9
$DIMBLK2
  1

  9
$DIMSTYLE
  2
STANDARD
  9
$DIMCLRD
 70
    0
  9
$DIMCLRE
 70
    0
  9
$DIMCLRT
 70
    0
  9
$DIMTFAC
 40
1
  9
$DIMGAP
 40
0.625
  9
$DIMJUST
 70
    0
  9
$DIMSD1
 70
    0
  9
$DIMSD2
 70
    0
  9
$DIMTOLJ
 70
    0
  9
$DIMTZIN
 70
    8
  9
$DIMALTZ
 70
    0
  9
$DIMALTTZ
 70
    0
  9
$DIMUPT
 70
    0
  9
$DIMDEC
 70
    0
  9
$DIMTDEC
 70
    2
  9
$DIMALTU
 70
    2
  9
$DIMALTTD
 70
    3
  9
$DIMTXSTY
  7
STANDARD
  9
$DIMAUNIT
 70
    0
  9
$DIMADEC
 70
    2
  9
$DIMALTRND
 40
0
  9
$DIMAZIN
 70
    0
  9
$DIMDSEP
 70
   44
  9
$DIMATFIT
 70
    3
  9
$DIMFRAC
 70
    0
  9
$DIMLDRBLK
  1
STANDARD
  9
$DIMLUNIT
 70
    2
  9
$DIMLWD
 70
   -2
  9
$DIMLWE
 70
   -2
  9
$DIMTMOVE
 70
    0
  9
$DIMFXL
 40
1
  9
$DIMFXLON
 70
    0
  9
$DIMJOGANG
 40
0.7854
  9
$DIMTFILL
 70
    0
  9
$DIMTFILLCLR
 70
    0
  9
$DIMARCSYM
 70
    0
  9
$DIMLTYPE
  6

  9
$DIMLTEX1
  6

  9
$DIMLTEX2
  6

  9
$LUNITS
 70
    2
  9
$LUPREC
 70
    4
  9
$SKETCHINC
 40
1
  9
$FILLETRAD
 40
0
  9
$AUNITS
 70
    0
  9
$AUPREC
 70
    2
  9
$MENU
  1
.
  9
$ELEVATION
 40
0
  9
$PELEVATION
 40
0
  9
$THICKNESS
 40
0
  9
$LIMCHECK
 70
    0
  9
$CHAMFERA
 40
0
  9
$CHAMFERB
 40
0
  9
$CHAMFERC
 40
0
  9
$CHAMFERD
 40
0
  9
$SKPOLY
 70
    0
  9
$USRTIMER
 70
    1
  9
$ANGBASE
 50
0
  9
$ANGDIR
 70
    0
  9
$PDMODE
 70
   34
  9
$PDSIZE
 40
0
  9
$PLINEWID
 40
0
  9
$SPLFRAME
 70
    0
  9
$SPLINETYPE
 70
    2
  9
$SPLINESEGS
 70
    8
  9
$HANDSEED
  5
20000
  9
$SURFTAB1
 70
    6
  9
$SURFTAB2
 70
    6
  9
$SURFTYPE
 70
    6
  9
$SURFU
 70
    6
  9
$SURFV
 70
    6
  9
$UCSBASE
  2

  9
$UCSNAME
  2

  9
$UCSORG
 10
0
 20
0
 30
0
  9
$UCSXDIR
 10
1
 20
0
 30
0
  9
$UCSYDIR
 10
0
 20
1
 30
0
  9
$UCSORTHOREF
  2

  9
$UCSORTHOVIEW
 70
    0
  9
$UCSORGTOP
 10
0
 20
0
 30
0
  9
$UCSORGBOTTOM
 10
0
 20
0
 30
0
  9
$UCSORGLEFT
 10
0
 20
0
 30
0
  9
$UCSORGRIGHT
 10
0
 20
0
 30
0
  9
$UCSORGFRONT
 10
0
 20
0
 30
0
  9
$UCSORGBACK
 10
0
 20
0
 30
0
  9
$PUCSBASE
  2

  9
$PUCSNAME
  2

  9
$PUCSORG
 10
0
 20
0
 30
0
  9
$PUCSXDIR
 10
1
 20
0
 30
0
  9
$PUCSYDIR
 10
0
 20
1
 30
0
  9
$PUCSORTHOREF
  2

  9
$PUCSORTHOVIEW
 70
    0
  9
$PUCSORGTOP
 10
0
 20
0
 30
0
  9
$PUCSORGBOTTOM
 10
0
 20
0
 30
0
  9
$PUCSORGLEFT
 10
0
 20
0
 30
0
  9
$PUCSORGRIGHT
 10
0
 20
0
 30
0
  9
$PUCSORGFRONT
 10
0
 20
0
 30
0
  9
$PUCSORGBACK
 10
0
 20
0
 30
0
  9
$USERI1
 70
    0
  9
$USERI2
 70
    0
  9
$USERI3
 70
    0
  9
$USERI4
 70
    0
  9
$USERI5
 70
    0
  9
$USERR1
 40
0
  9
$USERR2
 40
0
  9
$USERR3
 40
0
  9
$USERR4
 40
0
  9
$USERR5
 40
0
  9
$WORLDVIEW
 70
    1
  9
$SHADEDGE
 70
    3
  9
$SHADEDIF
 70
   70
  9
$TILEMODE
 70
    1
  9
$MAXACTVP
 70
   64
  9
$PINSBASE
 10
148.5
 20
127.212225
 30
0
  9
$PLIMCHECK
 70
    0
  9
$PEXTMIN
 10
0
 20
0
 30
0
  9
$PEXTMAX
 10
0
 20
0
 30
0
  9
$GRIDMODE
 70
    1
  9
$SNAPSTYLE
 70
    0
  9
$GRIDUNIT
 10
0
 20
0
  9
$PLIMMIN
 10
0
 20
0
  9
$PLIMMAX
 10
297
 20
210
  9
$UNITMODE
 70
    0
  9
$VISRETAIN
 70
    1
  9
$PLINEGEN
 70
    0
  9
$PSLTSCALE
 70
    1
  9
$TREEDEPTH
 70
 3020
  9
$CMLSTYLE
  2
Standard
  9
$CMLJUST
 70
    0
  9
$CMLSCALE
 40
20
  9
$PROXYGRAPHICS
 70
    1
  9
$MEASUREMENT
 70
    1
  9
$CELWEIGHT
370
   -1
  9
$ENDCAPS
280
    0
  9
$JOINSTYLE
280
    0
  9
$LWDISPLAY
290
    0
  9
$INSUNITS
 70
    0
  9
$HYPERLINKBASE
  1

  9
$STYLESHEET
  1

  9
$XEDIT
290
    1
  9
$CEPSNTYPE
380
    0
  9
$PSTYLEMODE
290
    1
  9
$EXTNAMES
290
    1
  9
$PSVPSCALE
 40
1
  9
$OLESTARTUP
290
    0
  9
$SORTENTS
280
  127
  9
$INDEXCTL
280
    0
  9
$HIDETEXT
280
    1
  9
$XCLIPFRAME
290
    0
  9
$HALOGAP
280
    0
  9
$OBSCOLOR
 70
  257
  9
$OBSLTYPE
280
    0
  9
$INTERSECTIONDISPLAY
280
    0
  9
$INTERSECTIONCOLOR
 70
  257
  9
$DIMASSOC
280
    1
  9
$PROJECTNAME
  1

  9
$CAMERADISPLAY
290
    0
  9
$LENSLENGTH
 40
50
  9
$CAMERAHEIGHT
 40
0
  9
$STEPSPERSEC
 40
2
  9
$STEPSIZE
 40
50
  9
$3DDWFPREC
 40
2
  9
$PSOLWIDTH
 40
5
  9
$PSOLHEIGHT
 40
80
  9
$LOFTANG1
 40
1.570796326794897
  9
$LOFTANG2
 40
1.570796326794897
  9
$LOFTMAG1
 40
0
  9
$LOFTMAG2
 40
0
  9
$LOFTPARAM
 70
    7
  9
$LOFTNORMALS
280
    1
  9
$LATITUDE
 40
1
  9
$LONGITUDE
 40
1
  9
$NORTHDIRECTION
 40
0
  9
$TIMEZONE
 70
-8000
  9
$LIGHTGLYPHDISPLAY
280
    1
  9
$TILEMODELIGHTSYNCH
280
    1
  9
$SOLIDHIST
280
    1
  9
$SHOWHIST
280
    1
  9
$DWFFRAME
280
    2
  9
$DGNFRAME
280
    0
  9
$REALWORLDSCALE
290
    1
  9
$INTERFERECOLOR
 62
    1
  9
$CSHADOW
280
    0
  9
$SHADOWPLANELOCATION
 40
0
  0
ENDSEC
  0
SECTION
  2
CLASSES
  0
ENDSEC
  0
SECTION
  2
TABLES
  0
TABLE
  2
VPORT
  5
8
330
0
100
AcDbSymbolTable
 70
    1
  0
VPORT
  5
31
330
2
100
AcDbSymbolTableRecord
100
AcDbViewportTableRecord
  2
*ACTIVE
 70
    0
 10
0
 20
0
 11
1
 21
1
 12
36.45698651561709
 22
53.94145964045386
 13
0
 23
0
 14
10
 24
10
 15
10
 25
10
 16
0
 26
0
 36
1
 17
0
 27
0
 37
0
 40
170.0086003840511
 41
1.592997811816192
 42
50
 43
0
 44
0
 50
0
 51
0
 71
    0
 72
  100
 73
    1
 74
    3
 75
    0
 76
    1
 77
    0
 78
    0
281
    0
 65
    1
110
0
120
0
130
0
111
1
121
0
131
0
112
0
122
1
132
0
 79
    0
146
0
348
10020
 60
    7
 61
    5
292
1
282
    1
141
0
142
0
 63
  250
421
3358443
  0
ENDTAB
  0
TABLE
  2
LTYPE
  5
5
330
0
100
AcDbSymbolTable
 70
    4
  0
LTYPE
  5
14
330
5
100
AcDbSymbolTableRecord
100
AcDbLinetypeTableRecord
  2
ByBlock
 70
    0
  3

 72
   65
 73
    0
 40
0
  0
LTYPE
  5
15
330
5
100
AcDbSymbolTableRecord
100
AcDbLinetypeTableRecord
  2
ByLayer
 70
    0
  3

 72
   65
 73
    0
 40
0
  0
LTYPE
  5
16
330
5
100
AcDbSymbolTableRecord
100
AcDbLinetypeTableRecord
  2
Continuous
 70
    0
  3
Solid line
 72
   65
 73
    0
 40
0
  0
LTYPE
  5
32
330
5
100
AcDbSymbolTableRecord
100
AcDbLinetypeTableRecord
  2
DOT
 70
    0
  3
Dot . . . . . . . . . . . . . . . . . . . . . .
 72
   65
 73
    2
 40
6.35
 49
0
 74
    0
 49
-6.35
 74
    0
  0
LTYPE
  5
33
330
5
100
AcDbSymbolTableRecord
100
AcDbLinetypeTableRecord
  2
DOTTINY
 70
    0
  3
Dot (.15x) .....................................
 72
   65
 73
    2
 40
0.9525
 49
0
 74
    0
 49
-0.9525
 74
    0
  0
LTYPE
  5
34
330
5
100
AcDbSymbolTableRecord
100
AcDbLinetypeTableRecord
  2
DOT2
 70
    0
  3
Dot (.5x) .....................................
 72
   65
 73
    2
 40
3.175
 49
0
 74
    0
 49
-3.175
 74
    0
  0
LTYPE
  5
35
330
5
100
AcDbSymbolTableRecord
100
AcDbLinetypeTableRecord
  2
DOTX2
 70
    0
  3
Dot (2x) .  .  .  .  .  .  .  .  .  .  .  .  .
 72
   65
 73
    2
 40
12.7
 49
0
 74
    0
 49
-12.7
 74
    0
  0
LTYPE
  5
36
330
5
100
AcDbSymbolTableRecord
100
AcDbLinetypeTableRecord
  2
DASHED
 70
    0
  3
Dashed _ _ _ _ _ _ _ _ _ _ _ _ _ _ _ _ _
 72
   65
 73
    2
 40
19.05
 49
12.7
 74
    0
 49
-6.35
 74
    0
  0
LTYPE
  5
37
330
5
100
AcDbSymbolTableRecord
100
AcDbLinetypeTableRecord
  2
DASHEDTINY
 70
    0
  3
Dashed (.15x) _ _ _ _ _ _ _ _ _ _ _ _ _ _ _ _ _
 72
   65
 73
    2
 40
2.8575
 49
1.905
 74
    0
 49
-0.9525
 74
    0
  0
LTYPE
  5
38
330
5
100
AcDbSymbolTableRecord
100
AcDbLinetypeTableRecord
  2
DASHED2
 70
    0
  3
Dashed (.5x) _ _ _ _ _ _ _ _ _ _ _ _ _ _ _ _ _
 72
   65
 73
    2
 40
9.524999999999999
 49
6.35
 74
    0
 49
-3.175
 74
    0
  0
LTYPE
  5
39
330
5
100
AcDbSymbolTableRecord
100
AcDbLinetypeTableRecord
  2
DASHEDX2
 70
    0
  3
Dashed (2x) ____  ____  ____  ____  ____  ___
 72
   65
 73
    2
 40
38.09999999999999
 49
25.4
 74
    0
 49
-12.7
 74
    0
  0
LTYPE
  5
3A
330
5
100
AcDbSymbolTableRecord
100
AcDbLinetypeTableRecord
  2
DASHDOT
 70
    0
  3
Dash dot __ . __ . __ . __ . __ . __ . __ . __
 72
   65
 73
    4
 40
25.4
 49
12.7
 74
    0
 49
-6.35
 74
    0
 49
0
 74
    0
 49
-6.35
 74
    0
  0
LTYPE
  5
3B
330
5
100
AcDbSymbolTableRecord
100
AcDbLinetypeTableRecord
  2
DASHDOTTINY
 70
    0
  3
Dash dot (.15x) _._._._._._._._._._._._._._._.
 72
   65
 73
    4
 40
3.81
 49
1.905
 74
    0
 49
-0.9525
 74
    0
 49
0
 74
    0
 49
-0.9525
 74
    0
  0
LTYPE
  5
3C
330
5
100
AcDbSymbolTableRecord
100
AcDbLinetypeTableRecord
  2
DASHDOT2
 70
    0
  3
Dash dot (.5x) _._._._._._._._._._._._._._._.
 72
   65
 73
    4
 40
12.7
 49
6.35
 74
    0
 49
-3.175
 74
    0
 49
0
 74
    0
 49
-3.175
 74
    0
  0
LTYPE
  5
3D
330
5
100
AcDbSymbolTableRecord
100
AcDbLinetypeTableRecord
  2
DASHDOTX2
 70
    0
  3
Dash dot (2x) ____  .  ____  .  ____  .  ___
 72
   65
 73
    4
 40
50.8
 49
25.4
 74
    0
 49
-12.7
 74
    0
 49
0
 74
    0
 49
-12.7
 74
    0
  0
LTYPE
  5
3E
330
5
100
AcDbSymbolTableRecord
100
AcDbLinetypeTableRecord
  2
DIVIDE
 70
    0
  3
Divide ____ . . ____ . . ____ . . ____ . . ____
 72
   65
 73
    6
 40
31.75
 49
12.7
 74
    0
 49
-6.35
 74
    0
 49
0
 74
    0
 49
-6.35
 74
    0
 49
0
 74
    0
 49
-6.35
 74
    0
  0
LTYPE
  5
3F
330
5
100
AcDbSymbolTableRecord
100
AcDbLinetypeTableRecord
  2
DIVIDETINY
 70
    0
  3
Divide (.15x) __..__..__..__..__..__..__..__.._
 72
   65
 73
    6
 40
4.7625
 49
1.905
 74
    0
 49
-0.9525
 74
    0
 49
0
 74
    0
 49
-0.9525
 74
    0
 49
0
 74
    0
 49
-0.9525
 74
    0
  0
LTYPE
  5
40
330
5
100
AcDbSymbolTableRecord
100
AcDbLinetypeTableRecord
  2
DIVIDE2
 70
    0
  3
Divide (.5x) __..__..__..__..__..__..__..__.._
 72
   65
 73
    6
 40
15.875
 49
6.35
 74
    0
 49
-3.175
 74
    0
 49
0
 74
    0
 49
-3.175
 74
    0
 49
0
 74
    0
 49
-3.175
 74
    0
  0
LTYPE
  5
41
330
5
100
AcDbSymbolTableRecord
100
AcDbLinetypeTableRecord
  2
DIVIDEX2
 70
    0
  3
Divide (2x) ________  .  .  ________  .  .  _
 72
   65
 73
    6
 40
63.5
 49
25.4
 74
    0
 49
-12.7
 74
    0
 49
0
 74
    0
 49
-12.7
 74
    0
 49
0
 74
    0
 49
-12.7
 74
    0
  0
LTYPE
  5
42
330
5
100
AcDbSymbolTableRecord
100
AcDbLinetypeTableRecord
  2
BORDER
 70
    0
  3
Border __ __ . __ __ . __ __ . __ __ . __ __ .
 72
   65
 73
    6
 40
44.45
 49
12.7
 74
    0
 49
-6.35
 74
    0
 49
12.7
 74
    0
 49
-6.35
 74
    0
 49
0
 74
    0
 49
-6.35
 74
    0
  0
LTYPE
  5
43
330
5
100
AcDbSymbolTableRecord
100
AcDbLinetypeTableRecord
  2
BORDERTINY
 70
    0
  3
Border (.15x) __.__.__.__.__.__.__.__.__.__.__.
 72
   65
 73
    6
 40
6.6675
 49
1.905
 74
    0
 49
-0.9525
 74
    0
 49
1.905
 74
    0
 49
-0.9525
 74
    0
 49
0
 74
    0
 49
-0.9525
 74
    0
  0
LTYPE
  5
44
330
5
100
AcDbSymbolTableRecord
100
AcDbLinetypeTableRecord
  2
BORDER2
 70
    0
  3
Border (.5x) __.__.__.__.__.__.__.__.__.__.__.
 72
   65
 73
    6
 40
22.225
 49
6.35
 74
    0
 49
-3.175
 74
    0
 49
6.35
 74
    0
 49
-3.175
 74
    0
 49
0
 74
    0
 49
-3.175
 74
    0
  0
LTYPE
  5
45
330
5
100
AcDbSymbolTableRecord
100
AcDbLinetypeTableRecord
  2
BORDERX2
 70
    0
  3
Border (2x) ____  ____  .  ____  ____  .  ___
 72
   65
 73
    6
 40
88.89999999999999
 49
25.4
 74
    0
 49
-12.7
 74
    0
 49
25.4
 74
    0
 49
-12.7
 74
    0
 49
0
 74
    0
 49
-12.7
 74
    0
  0
LTYPE
  5
46
330
5
100
AcDbSymbolTableRecord
100
AcDbLinetypeTableRecord
  2
CENTER
 70
    0
  3
Center ____ _ ____ _ ____ _ ____ _ ____ _ ____
 72
   65
 73
    4
 40
50.8
 49
31.75
 74
    0
 49
-6.35
 74
    0
 49
6.35
 74
    0
 49
-6.35
 74
    0
  0
LTYPE
  5
47
330
5
100
AcDbSymbolTableRecord
100
AcDbLinetypeTableRecord
  2
CENTERTINY
 70
    0
  3
Center (.15x) ___ _ ___ _ ___ _ ___ _ ___ _ ___
 72
   65
 73
    4
 40
7.619999999999999
 49
4.7625
 74
    0
 49
-0.9525
 74
    0
 49
0.9525
 74
    0
 49
-0.9525
 74
    0
  0
LTYPE
  5
48
330
5
100
AcDbSymbolTableRecord
100
AcDbLinetypeTableRecord
  2
CENTER2
 70
    0
  3
Center (.5x) ___ _ ___ _ ___ _ ___ _ ___ _ ___
 72
   65
 73
    4
 40
28.575
 49
19.05
 74
    0
 49
-3.175
 74
    0
 49
3.175
 74
    0
 49
-3.175
 74
    0
  0
LTYPE
  5
49
330
5
100
AcDbSymbolTableRecord
100
AcDbLinetypeTableRecord
  2
CENTERX2
 70
    0
  3
Center (2x) ________  __  ________  __  _____
 72
   65
 73
    4
 40
101.6
 49
63.5
 74
    0
 49
-12.7
 74
    0
 49
12.7
 74
    0
 49
-12.7
 74
    0
  0
ENDTAB
  0
TABLE
  2
LAYER
  5
2
330
0
100
AcDbSymbolTable
 70
    1
  0
LAYER
  5
10
330
2
100
AcDbSymbolTableRecord
100
AcDbLayerTableRecord
  2
0
 70
    0
 62
    7
  6
CONTINUOUS
370
    0
390
F
  0
LAYER
  5
4A
330
2
100
AcDbSymbolTableRecord
100
AcDbLayerTableRecord
  2
center
 70
    0
 62
    7
  6
CENTERTINY
370
   15
390
F
  0
LAYER
  5
4B
330
2
100
AcDbSymbolTableRecord
100
AcDbLayerTableRecord
  2
dimension
 70
    0
 62
    7
  6
CONTINUOUS
370
   15
390
F
  0
LAYER
  5
4C
330
2
100
AcDbSymbolTableRecord
100
AcDbLayerTableRecord
  2
draft
 70
    1
 62
    3
  6
DOTTINY
370
   15
390
F
  0
LAYER
  5
4D
330
2
100
AcDbSymbolTableRecord
100
AcDbLayerTableRecord
  2
intake
 70
    1
 62
   56
420
8421376
  6
CONTINUOUS
370
    0
390
F
  0
LAYER
  5
4E
330
2
100
AcDbSymbolTableRecord
100
AcDbLayerTableRecord
  2
shape
 70
    0
 62
    7
  6
CONTINUOUS
370
   15
390
F
  0
ENDTAB
  0
TABLE
  2
STYLE
  5
3
330
0
100
AcDbSymbolTable
 70
    3
  0
STYLE
  5
4F
330
2
100
AcDbSymbolTableRecord
100
AcDbTextStyleTableRecord
  2
unicode
 70
    0
 40
0
 41
1
 50
0
 71
    0
 42
1
  3
unicode
  4

  0
STYLE
  5
50
330
2
100
AcDbSymbolTableRecord
100
AcDbTextStyleTableRecord
  2
Standard
 70
    0
 40
0
 41
1
 50
0
 71
    0
 42
1
  3
txt
  4

  0
ENDTAB
  0
TABLE
  2
VIEW
  5
6
330
0
100
AcDbSymbolTable
 70
    0
  0
ENDTAB
  0
TABLE
  2
UCS
  5
7
330
0
100
AcDbSymbolTable
 70
    0
  0
ENDTAB
  0
TABLE
  2
APPID
  5
9
330
0
100
AcDbSymbolTable
 70
    1
  0
APPID
  5
12
330
9
100
AcDbSymbolTableRecord
100
AcDbRegAppTableRecord
  2
ACAD
 70
    0
  0
APPID
  5
51
330
9
100
AcDbSymbolTableRecord
100
AcDbRegAppTableRecord
  2
LibreCad
 70
    0
  0
ENDTAB
  0
TABLE
  2
DIMSTYLE
  5
A
330
0
100
AcDbSymbolTable
 70
    1
100
AcDbDimStyleTable
 71
    1
  0
DIMSTYLE
105
52
330
A
100
AcDbSymbolTableRecord
100
AcDbDimStyleTableRecord
  2
Standard
 70
    0
 40
1
 41
2.5
 42
0.625
 43
0.38
 44
1.25
 45
0
 46
0
 47
0
 48
0
 49
1
140
2.5
141
0.09
142
0
143
25.4
144
1
145
0
146
1
147
0.625
148
0
 71
    0
 72
    0
 73
    0
 74
    1
 75
    0
 76
    0
 77
    0
 78
    8
 79
    0
170
    0
171
    2
172
    0
173
    0
174
    0
175
    0
176
    0
177
    0
178
    0
179
    2
271
    0
272
    4
273
    2
274
    2
275
    0
276
    0
277
    2
278
   44
279
    0
280
    0
281
    0
282
    0
283
    1
284
    0
285
    0
286
    0
288
    0
289
    3
340
STANDARD
341

371
   -2
372
   -2
  0
ENDTAB
  0
TABLE
  2
BLOCK_RECORD
  5
1
330
0
100
AcDbSymbolTable
 70
    2
  0
BLOCK_RECORD
  5
1F
330
1
100
AcDbSymbolTableRecord
100
AcDbBlockTableRecord
  2
*Model_Space
 70
    0
280
    1
281
    0
  0
BLOCK_RECORD
  5
1E
330
1
100
AcDbSymbolTableRecord
100
AcDbBlockTableRecord
  2
*Paper_Space
 70
    0
280
    1
281
    0
  0
BLOCK_RECORD
  5
53
330
1
100
AcDbSymbolTableRecord
100
AcDbBlockTableRecord
  2
*D6
 70
    0
280
    1
281
    0
  0
BLOCK_RECORD
  5
56
330
1
100
AcDbSymbolTableRecord
100
AcDbBlockTableRecord
  2
*D3
 70
    0
280
    1
281
    0
  0
BLOCK_RECORD
  5
59
330
1
100
AcDbSymbolTableRecord
100
AcDbBlockTableRecord
  2
*D5
 70
    0
280
    1
281
    0
  0
BLOCK_RECORD
  5
5C
330
1
100
AcDbSymbolTableRecord
100
AcDbBlockTableRecord
  2
*D4
 70
    0
280
    1
281
    0
  0
BLOCK_RECORD
  5
5F
330
1
100
AcDbSymbolTableRecord
100
AcDbBlockTableRecord
  2
*D8
 70
    0
280
    1
281
    0
  0
BLOCK_RECORD
  5
62
330
1
100
AcDbSymbolTableRecord
100
AcDbBlockTableRecord
  2
*D1
 70
    0
280
    1
281
    0
  0
BLOCK_RECORD
  5
65
330
1
100
AcDbSymbolTableRecord
100
AcDbBlockTableRecord
  2
*D7
 70
    0
280
    1
281
    0
  0
BLOCK_RECORD
  5
68
330
1
100
AcDbSymbolTableRecord
100
AcDbBlockTableRecord
  2
*D2
 70
    0
280
    1
281
    0
  0
ENDTAB
  0
ENDSEC
  0
SECTION
  2
BLOCKS
  0
BLOCK
  5
20
330
1F
100
AcDbEntity
  8
0
100
AcDbBlockBegin
  2
*Model_Space
 70
    0
 10
0
 20
0
 30
0
  3
*Model_Space
  1

  0
ENDBLK
  5
21
330
1F
100
AcDbEntity
  8
0
100
AcDbBlockEnd
  0
BLOCK
  5
1C
330
1B
100
AcDbEntity
  8
0
100
AcDbBlockBegin
  2
*Paper_Space
 70
    0
 10
0
 20
0
 30
0
  3
*Paper_Space
  1

  0
ENDBLK
  5
1D
330
1F
100
AcDbEntity
  8
0
100
AcDbBlockEnd
  0
BLOCK
  5
54
330
53
100
AcDbEntity
  8
0
100
AcDbBlockBegin
  2
*D6
 70
    1
 10
0
 20
0
  3
*D6
  1

  0
LINE
  5
6B
100
AcDbEntity
  8
dimension
  6
ByBlock
 62
    0
370
   -2
100
AcDbLine
 10
-87
 20
26.31499999999949
 11
-15
 21
26.31499999999949
  0
MTEXT
  5
6C
100
AcDbEntity
  8
dimension
  6
CONTINUOUS
 62
    0
370
   -2
100
AcDbMText
 10
-51
 20
28.18999999999949
 30
0
 40
2.5
 41
3.055555555555556
 71
    5
 72
    1
  1
72
  7
STANDARD
210
0
220
0
230
1
 50
0
 73
    2
 44
1
  0
SOLID
  5
6D
100
AcDbEntity
  8
dimension
  6
ByBlock
 62
    0
370
   -2
100
AcDbTrace
 10
-87
 20
26.31499999999949
 30
0
 11
-84.5
 21
26.73128465777233
 31
0
 12
-84.5
 22
25.89871534222665
 32
0
 13
-84.5
 23
25.89871534222665
 33
0
  0
SOLID
  5
6E
100
AcDbEntity
  8
dimension
  6
ByBlock
 62
    0
370
   -2
100
AcDbTrace
 10
-15
 20
26.31499999999949
 30
0
 11
-17.5
 21
25.89871534222665
 31
0
 12
-17.5
 22
26.73128465777233
 32
0
 13
-17.5
 23
26.73128465777233
 33
0
  0
LINE
  5
6F
100
AcDbEntity
  8
dimension
  6
ByBlock
 62
    0
370
   -2
100
AcDbLine
 10
-87
 20
31.375
 11
-87
 21
25.06499999999949
  0
LINE
  5
70
100
AcDbEntity
  8
dimension
  6
ByBlock
 62
    0
370
   -2
100
AcDbLine
 10
-15
 20
32.22775000000009
 11
-15
 21
25.06499999999949
  0
ENDBLK
  5
55
330
53
100
AcDbEntity
  8
0
100
AcDbBlockEnd
  0
BLOCK
  5
57
330
56
100
AcDbEntity
  8
0
100
AcDbBlockBegin
  2
*D3
 70
    1
 10
0
 20
0
  3
*D3
  1

  0
LINE
  5
71
100
AcDbEntity
  8
dimension
  6
ByBlock
 62
    0
370
   -2
100
AcDbLine
 10
-100
 20
49.5
 11
-100
 21
-49.5
  0
MTEXT
  5
72
100
AcDbEntity
  8
dimension
  6
CONTINUOUS
 62
    0
370
   -2
100
AcDbMText
 10
-101.875
 20
1.44404684065437e-14
 30
0
 40
2.5
 41
3.055555555555711
 71
    5
 72
    1
  1
99
  7
STANDARD
210
0
220
0
230
1
 50
90
 73
    2
 44
1
  0
SOLID
  5
73
100
AcDbEntity
  8
dimension
  6
ByBlock
 62
    0
370
   -2
100
AcDbTrace
 10
-100
 20
49.5
 30
0
 11
-99.58371534222717
 21
47
 31
0
 12
-100.4162846577728
 22
47
 32
0
 13
-100.4162846577728
 23
47
 33
0
  0
SOLID
  5
74
100
AcDbEntity
  8
dimension
  6
ByBlock
 62
    0
370
   -2
100
AcDbTrace
 10
-100
 20
-49.5
 30
0
 11
-100.4162846577728
 21
-47
 31
0
 12
-99.58371534222717
 22
-47
 32
0
 13
-99.58371534222717
 23
-47
 33
0
  0
LINE
  5
75
100
AcDbEntity
  8
dimension
  6
ByBlock
 62
    0
370
   -2
100
AcDbLine
 10
-100.625
 20
49.50000000000001
 11
-101.25
 21
49.5
  0
LINE
  5
76
100
AcDbEntity
  8
dimension
  6
ByBlock
 62
    0
370
   -2
100
AcDbLine
 10
-100.625
 20
-49.5
 11
-101.25
 21
-49.5
  0
ENDBLK
  5
58
330
56
100
AcDbEntity
  8
0
100
AcDbBlockEnd
  0
BLOCK
  5
5A
330
59
100
AcDbEntity
  8
0
100
AcDbBlockBegin
  2
*D5
 70
    1
 10
0
 20
0
  3
*D5
  1

  0
LINE
  5
77
100
AcDbEntity
  8
dimension
  6
ByBlock
 62
    0
370
   -2
100
AcDbLine
 10
-18.74999999999999
 20
30
 11
-18.74999999999999
 21
-42
  0
MTEXT
  5
78
100
AcDbEntity
  8
dimension
  6
CONTINUOUS
 62
    0
370
   -2
100
AcDbMText
 10
-20.62499999999999
 20
-6
 30
0
 40
2.5
 41
3.055555555555556
 71
    5
 72
    1
  1
72
  7
STANDARD
210
0
220
0
230
1
 50
90
 73
    2
 44
1
  0
SOLID
  5
79
100
AcDbEntity
  8
dimension
  6
ByBlock
 62
    0
370
   -2
100
AcDbTrace
 10
-18.74999999999999
 20
30
 30
0
 11
-18.33371534222714
 21
27.5
 31
0
 12
-19.16628465777283
 22
27.5
 32
0
 13
-19.16628465777283
 23
27.5
 33
0
  0
SOLID
  5
7A
100
AcDbEntity
  8
dimension
  6
ByBlock
 62
    0
370
   -2
100
AcDbTrace
 10
-18.74999999999999
 20
-42
 30
0
 11
-19.16628465777283
 21
-39.5
 31
0
 12
-18.33371534222715
 22
-39.5
 32
0
 13
-18.33371534222715
 23
-39.5
 33
0
  0
LINE
  5
7B
100
AcDbEntity
  8
dimension
  6
ByBlock
 62
    0
370
   -2
100
AcDbLine
 10
-18.375
 20
30
 11
-17.49999999999999
 21
30
  0
LINE
  5
7C
100
AcDbEntity
  8
dimension
  6
ByBlock
 62
    0
370
   -2
100
AcDbLine
 10
-18.12499999999999
 20
-42
 11
-17.49999999999999
 21
-42
  0
ENDBLK
  5
5B
330
59
100
AcDbEntity
  8
0
100
AcDbBlockEnd
  0
BLOCK
  5
5D
330
5C
100
AcDbEntity
  8
0
100
AcDbBlockBegin
  2
*D4
 70
    1
 10
0
 20
0
  3
*D4
  1

  0
LINE
  5
7D
100
AcDbEntity
  8
dimension
  6
ByBlock
 62
    0
370
   -2
100
AcDbLine
 10
18
 20
38.50000000000365
 11
100
 21
38.50000000000365
  0
MTEXT
  5
7E
100
AcDbEntity
  8
dimension
  6
CONTINUOUS
 62
    0
370
   -2
100
AcDbMText
 10
59
 20
40.37500000000365
 30
0
 40
2.5
 41
3.055555555555556
 71
    5
 72
    1
  1
82
  7
STANDARD
210
0
220
0
230
1
 50
0
 73
    2
 44
1
  0
SOLID
  5
7F
100
AcDbEntity
  8
dimension
  6
ByBlock
 62
    0
370
   -2
100
AcDbTrace
 10
18
 20
38.50000000000365
 30
0
 11
20.5
 21
38.91628465777649
 31
0
 12
20.5
 22
38.08371534223081
 32
0
 13
20.5
 23
38.08371534223081
 33
0
  0
SOLID
  5
80
100
AcDbEntity
  8
dimension
  6
ByBlock
 62
    0
370
   -2
100
AcDbTrace
 10
100
 20
38.50000000000365
 30
0
 11
97.5
 21
38.08371534223081
 31
0
 12
97.5
 22
38.91628465777649
 32
0
 13
97.5
 23
38.91628465777649
 33
0
  0
LINE
  5
81
100
AcDbEntity
  8
dimension
  6
ByBlock
 62
    0
370
   -2
100
AcDbLine
 10
18
 20
33.125
 11
18
 21
39.75000000000365
  0
LINE
  5
82
100
AcDbEntity
  8
dimension
  6
ByBlock
 62
    0
370
   -2
100
AcDbLine
 10
100
 20
39.37500000000379
 11
100
 21
37.25000000000365
  0
ENDBLK
  5
5E
330
5C
100
AcDbEntity
  8
0
100
AcDbBlockEnd
  0
BLOCK
  5
60
330
5F
100
AcDbEntity
  8
0
100
AcDbBlockBegin
  2
*D8
 70
    1
 10
0
 20
0
  3
*D8
  1

  0
LINE
  5
83
100
AcDbEntity
  8
dimension
  6
ByBlock
 62
    0
370
   -2
100
AcDbLine
 10
75
 20
10.20378131886772
 11
45
 21
10.20378131886772
  0
MTEXT
  5
84
100
AcDbEntity
  8
dimension
  6
CONTINUOUS
 62
    0
370
   -2
100
AcDbMText
 10
60
 20
12.07878131886772
 30
0
 40
2.5
 41
3.055555555555711
 71
    5
 72
    1
  1
30
  7
STANDARD
210
0
220
0
230
1
 50
0
 73
    2
 44
1
  0
SOLID
  5
85
100
AcDbEntity
  8
dimension
  6
ByBlock
 62
    0
370
   -2
100
AcDbTrace
 10
75
 20
10.20378131886772
 30
0
 11
72.5
 21
9.787496661094881
 31
0
 12
72.5
 22
10.62006597664056
 32
0
 13
72.5
 23
10.62006597664056
 33
0
  0
SOLID
  5
86
100
AcDbEntity
  8
dimension
  6
ByBlock
 62
    0
370
   -2
100
AcDbTrace
 10
45
 20
10.20378131886772
 30
0
 11
47.5
 21
10.62006597664056
 31
0
 12
47.5
 22
9.787496661094879
 32
0
 13
47.5
 23
9.787496661094879
 33
0
  0
LINE
  5
87
100
AcDbEntity
  8
dimension
  6
ByBlock
 62
    0
370
   -2
100
AcDbLine
 10
75
 20
17.875
 11
75
 21
8.953781318867721
  0
LINE
  5
88
100
AcDbEntity
  8
dimension
  6
ByBlock
 62
    0
370
   -2
100
AcDbLine
 10
45
 20
10.83187727030761
 11
45
 21
8.953781318867721
  0
ENDBLK
  5
61
330
5F
100
AcDbEntity
  8
0
100
AcDbBlockEnd
  0
BLOCK
  5
63
330
62
100
AcDbEntity
  8
0
100
AcDbBlockBegin
  2
*D1
 70
    1
 10
0
 20
0
  3
*D1
  1

  0
LINE
  5
89
100
AcDbEntity
  8
dimension
  6
ByBlock
 62
    0
370
   -2
100
AcDbLine
 10
-100
 20
-9.488358228846671
 11
-87
 21
-9.488358228846671
  0
MTEXT
  5
8A
100
AcDbEntity
  8
dimension
  6
CONTINUOUS
 62
    0
370
   -2
100
AcDbMText
 10
-93.5
 20
-7.613358228846671
 30
0
 40
2.5
 41
2.500000000000155
 71
    5
 72
    1
  1
13
  7
STANDARD
210
0
220
0
230
1
 50
0
 73
    2
 44
1
  0
SOLID
  5
8B
100
AcDbEntity
  8
dimension
  6
ByBlock
 62
    0
370
   -2
100
AcDbTrace
 10
-100
 20
-9.488358228846671
 30
0
 11
-97.5
 21
-9.072073571073831
 31
0
 12
-97.5
 22
-9.904642886619513
 32
0
 13
-97.5
 23
-9.904642886619513
 33
0
  0
SOLID
  5
8C
100
AcDbEntity
  8
dimension
  6
ByBlock
 62
    0
370
   -2
100
AcDbTrace
 10
-87
 20
-9.488358228846671
 30
0
 11
-89.5
 21
-9.904642886619511
 31
0
 12
-89.5
 22
-9.072073571073831
 32
0
 13
-89.5
 23
-9.072073571073831
 33
0
  0
LINE
  5
8D
100
AcDbEntity
  8
dimension
  6
ByBlock
 62
    0
370
   -2
100
AcDbLine
 10
-100
 20
-9.55762834315253
 11
-100
 21
-8.238358228846671
  0
LINE
  5
8E
100
AcDbEntity
  8
dimension
  6
ByBlock
 62
    0
370
   -2
100
AcDbLine
 10
-87
 20
-9.904763400305461
 11
-87
 21
-8.238358228846671
  0
ENDBLK
  5
64
330
62
100
AcDbEntity
  8
0
100
AcDbBlockEnd
  0
BLOCK
  5
66
330
65
100
AcDbEntity
  8
0
100
AcDbBlockBegin
  2
*D7
 70
    1
 10
0
 20
0
  3
*D7
  1

  0
LINE
  5
8F
100
AcDbEntity
  8
dimension
  6
ByBlock
 62
    0
370
   -2
100
AcDbLine
 10
75
 20
10.20378131886772
 11
100
 21
10.20378131886772
  0
MTEXT
  5
90
100
AcDbEntity
  8
dimension
  6
CONTINUOUS
 62
    0
370
   -2
100
AcDbMText
 10
87.5
 20
12.07878131886772
 30
0
 40
2.5
 41
3.055555555555711
 71
    5
 72
    1
  1
25
  7
STANDARD
210
0
220
0
230
1
 50
0
 73
    2
 44
1
  0
SOLID
  5
91
100
AcDbEntity
  8
dimension
  6
ByBlock
 62
    0
370
   -2
100
AcDbTrace
 10
75
 20
10.20378131886772
 30
0
 11
77.5
 21
10.62006597664056
 31
0
 12
77.5
 22
9.787496661094879
 32
0
 13
77.5
 23
9.787496661094879
 33
0
  0
SOLID
  5
92
100
AcDbEntity
  8
dimension
  6
ByBlock
 62
    0
370
   -2
100
AcDbTrace
 10
100
 20
10.20378131886772
 30
0
 11
97.5
 21
9.787496661094881
 31
0
 12
97.5
 22
10.62006597664056
 32
0
 13
97.5
 23
10.62006597664056
 33
0
  0
LINE
  5
93
100
AcDbEntity
  8
dimension
  6
ByBlock
 62
    0
370
   -2
100
AcDbLine
 10
75
 20
23.875
 11
75
 21
8.953781318867721
  0
LINE
  5
94
100
AcDbEntity
  8
dimension
  6
ByBlock
 62
    0
370
   -2
100
AcDbLine
 10
100
 20
23.875
 11
100
 21
8.953781318867721
  0
ENDBLK
  5
67
330
65
100
AcDbEntity
  8
0
100
AcDbBlockEnd
  0
BLOCK
  5
69
330
68
100
AcDbEntity
  8
0
100
AcDbBlockBegin
  2
*D2
 70
    1
 10
0
 20
0
  3
*D2
  1

  0
LINE
  5
95
100
AcDbEntity
  8
dimension
  6
ByBlock
 62
    0
370
   -2
100
AcDbLine
 10
-100
 20
49.49999999999998
 11
100
 21
49.49999999999998
  0
MTEXT
  5
96
100
AcDbEntity
  8
dimension
  6
CONTINUOUS
 62
    0
370
   -2
100
AcDbMText
 10
1.148068456708479e-16
 20
51.37499999999998
 30
0
 40
2.5
 41
5
 71
    5
 72
    1
  1
200
  7
STANDARD
210
0
220
0
230
1
 50
0
 73
    2
 44
1
  0
SOLID
  5
97
100
AcDbEntity
  8
dimension
  6
ByBlock
 62
    0
370
   -2
100
AcDbTrace
 10
-100
 20
49.49999999999998
 30
0
 11
-97.5
 21
49.91628465777282
 31
0
 12
-97.5
 22
49.08371534222714
 32
0
 13
-97.5
 23
49.08371534222714
 33
0
  0
SOLID
  5
98
100
AcDbEntity
  8
dimension
  6
ByBlock
 62
    0
370
   -2
100
AcDbTrace
 10
100
 20
49.49999999999998
 30
0
 11
97.5
 21
49.08371534222714
 31
0
 12
97.5
 22
49.91628465777282
 32
0
 13
97.5
 23
49.91628465777282
 33
0
  0
LINE
  5
99
100
AcDbEntity
  8
dimension
  6
ByBlock
 62
    0
370
   -2
100
AcDbLine
 10
-100
 20
50.12500000000002
 11
-100
 21
50.74999999999998
  0
LINE
  5
9A
100
AcDbEntity
  8
dimension
  6
ByBlock
 62
    0
370
   -2
100
AcDbLine
 10
100
 20
50.12499999999998
 11
100
 21
50.74999999999998
  0
ENDBLK
  5
6A
330
68
100
AcDbEntity
  8
0
100
AcDbBlockEnd
  0
ENDSEC
  0
SECTION
  2
ENTITIES
  0
LINE
  5
9B
100
AcDbEntity
  8
draft
  6
ByLayer
 62
  256
370
   -1
100
AcDbLine
 10
-100
 20
0
 11
100
 21
0
  0
LINE
  5
9C
100
AcDbEntity
  8
draft
  6
ByLayer
 62
  256
370
   -1
100
AcDbLine
 10
-3.030900725710384e-15
 20
-49.5
 11
3.030900725710384e-15
 21
49.5
  0
LINE
  5
9D
100
AcDbEntity
  8
draft
  6
ByLayer
 62
  256
370
   -1
100
AcDbLine
 10
-100
 20
49.5
 11
100
 21
49.5
  0
LINE
  5
9E
100
AcDbEntity
  8
draft
  6
ByLayer
 62
  256
370
   -1
100
AcDbLine
 10
100
 20
-49.50000000000002
 11
100
 21
49.49999999999998
  0
LINE
  5
9F
100
AcDbEntity
  8
draft
  6
ByLayer
 62
  256
370
   -1
100
AcDbLine
 10
-100
 20
-49.49999999999999
 11
-100
 21
49.50000000000001
  0
LINE
  5
A0
100
AcDbEntity
  8
draft
  6
ByLayer
 62
  256
370
   -1
100
AcDbLine
 10
-100
 20
24.5
 11
100
 21
24.5
  0
LINE
  5
A1
100
AcDbEntity
  8
draft
  6
ByLayer
 62
  256
370
   -1
100
AcDbLine
 10
-87
 20
-49.49999999999999
 11
-87
 21
49.50000000000001
  0
LINE
  5
A2
100
AcDbEntity
  8
draft
  6
ByLayer
 62
  256
370
   -1
100
AcDbLine
 10
-100
 20
-39.5
 11
99.99999999999999
 21
-39.5
  0
LINE
  5
A3
100
AcDbEntity
  8
draft
  6
ByLayer
 62
  256
370
   -1
100
AcDbLine
 10
-15
 20
-49.5
 11
-15
 21
49.5
  0
LINE
  5
A4
100
AcDbEntity
  8
draft
  6
ByLayer
 62
  256
370
   -1
100
AcDbLine
 10
100
 20
41.49999999999998
 11
-100
 21
41.5
  0
LINE
  5
A5
100
AcDbEntity
  8
draft
  6
ByLayer
 62
  256
370
   -1
100
AcDbLine
 10
18
 20
-49.50000000000001
 11
18
 21
49.49999999999999
  0
LINE
  5
A6
100
AcDbEntity
  8
draft
  6
ByLayer
 62
  256
370
   -1
100
AcDbLine
 10
-18
 20
-49.50000000000001
 11
-18
 21
49.49999999999999
  0
LINE
  5
A7
100
AcDbEntity
  8
draft
  6
ByLayer
 62
  256
370
   -1
100
AcDbLine
 10
-100
 20
32.5
 11
99.99999999999999
 21
32.5
  0
LINE
  5
A8
100
AcDbEntity
  8
draft
  6
ByLayer
 62
  256
370
   -1
100
AcDbLine
 10
75
 20
-49.50000000000002
 11
75
 21
49.49999999999998
  0
LINE
  5
A9
100
AcDbEntity
  8
draft
  6
ByLayer
 62
  256
370
   -1
100
AcDbLine
 10
45
 20
-49.50000000000001
 11
45
 21
49.49999999999999
  0
MTEXT
  5
AA
100
AcDbEntity
  8
dimension
  6
ByLayer
 62
  256
370
   -1
100
AcDbMText
 10
0
 20
0
 30
0
 40
8
 41
66.44444444444444
 71
    4
 72
    1
  1
\P\P  REAR PANEL
  7
unicode
210
0
220
0
230
1
 50
0
 73
    2
 44
1
  0
LINE
  5
AB
100
AcDbEntity
  8
center
  6
ByLayer
 62
  256
370
   -1
100
AcDbLine
 10
-18
 20
49.49999999999999
 11
-18
 21
32.49999959754209
  0
LINE
  5
AC
100
AcDbEntity
  8
center
  6
ByLayer
 62
  256
370
   -1
100
AcDbLine
 10
18
 20
49.49999999999999
 11
18
 21
32.5
  0
LINE
  5
AD
100
AcDbEntity
  8
center
  6
ByLayer
 62
  256
370
   -1
100
AcDbLine
 10
18
 20
24.5
 11
100
 21
24.5
  0
LINE
  5
AE
100
AcDbEntity
  8
center
  6
ByLayer
 62
  256
370
   -1
100
AcDbLine
 10
45
 20
32.5
 11
45
 21
0
  0
LINE
  5
AF
100
AcDbEntity
  8
draft
  6
ByLayer
 62
  256
370
   -1
100
AcDbLine
 10
-87
 20
44.5
 11
45
 21
44.49999999999998
  0
LINE
  5
B0
100
AcDbEntity
  8
draft
  6
ByLayer
 62
  256
370
   -1
100
AcDbLine
 10
-87
 20
45.5
 11
45
 21
45.49999999999998
  0
LINE
  5
B1
100
AcDbEntity
  8
draft
  6
ByLayer
 62
  256
370
   -1
100
AcDbLine
 10
10.92893218813452
 20
34.42893218813451
 11
25.07106781186548
 21
48.57106781186546
  0
LINE
  5
B2
100
AcDbEntity
  8
draft
  6
ByLayer
 62
  256
370
   -1
100
AcDbLine
 10
37.92893218813452
 20
17.42893218813452
 11
52.07106781186548
 21
31.57106781186548
  0
LINE
  5
B3
100
AcDbEntity
  8
draft
  6
ByLayer
 62
  256
370
   -1
100
AcDbLine
 10
18
 20
29.5
 11
100
 21
29.5
  0
LINE
  5
B4
100
AcDbEntity
  8
draft
  6
ByLayer
 62
  256
370
   -1
100
AcDbLine
 10
64.39339828220179
 20
13.89339828220179
 11
85.60660171779821
 21
35.10660171779821
  0
LINE
  5
B5
100
AcDbEntity
  8
draft
  6
ByLayer
 62
  256
370
   -1
100
AcDbLine
 10
18
 20
30.5
 11
100
 21
30.5
  0
LINE
  5
B6
100
AcDbEntity
  8
draft
  6
ByLayer
 62
  256
370
   -1
100
AcDbLine
 10
-100
 20
33.5
 11
99.99999999999999
 21
33.5
  0
LINE
  5
B7
100
AcDbEntity
  8
draft
  6
ByLayer
 62
  256
370
   -1
100
AcDbLine
 10
-100
 20
-31.5
 11
100
 21
-31.5
  0
LINE
  5
B8
100
AcDbEntity
  8
draft
  6
ByLayer
 62
  256
370
   -1
100
AcDbLine
 10
-100
 20
-30.5
 11
100
 21
-30.5
  0
LINE
  5
B9
100
AcDbEntity
  8
draft
  6
ByLayer
 62
  256
370
   -1
100
AcDbLine
 10
31
 20
49.49999999999999
 11
31
 21
32.5
  0
LINE
  5
BA
100
AcDbEntity
  8
draft
  6
ByLayer
 62
  256
370
   -1
100
AcDbLine
 10
60
 20
-49.50000000000002
 11
60
 21
49.49999999999998
  0
LINE
  5
BB
100
AcDbEntity
  8
draft
  6
ByLayer
 62
  256
370
   -1
100
AcDbLine
 10
93
 20
-49.50000000000003
 11
93
 21
49.49999999999997
  0
LINE
  5
BC
100
AcDbEntity
  8
draft
  6
ByLayer
 62
  256
370
   -1
100
AcDbLine
 10
-69
 20
49.50000000000001
 11
-69
 21
-49.50000000000001
  0
LINE
  5
BD
100
AcDbEntity
  8
shape
  6
ByLayer
 62
  256
370
   -1
100
AcDbLine
 10
-100
 20
49.50000000000001
 11
100
 21
49.49999999999998
  0
DIMENSION
  5
BE
100
AcDbEntity
  8
dimension
  6
ByLayer
 62
  256
370
   -1
100
AcDbDimension
  2
*D1
 10
-87
 20
-9.488358228846671
 30
0
 11
-93.5
 21
-7.613358228846671
 31
0
 70
   32
 71
    5
  3
Standard
 53
0
210
0
220
0
230
1
100
AcDbAlignedDimension
 13
-100
 23
-10.18262834315253
 33
0
 14
-87
 24
-10.52976340030546
 34
0
100
AcDbRotatedDimension
  0
DIMENSION
  5
BF
100
AcDbEntity
  8
dimension
  6
ByLayer
 62
  256
370
   -1
100
AcDbDimension
  2
*D2
 10
100
 20
49.49999999999998
 30
0
 11
1.148068456708479e-16
 21
51.37499999999998
 31
0
 70
   32
 71
    5
  3
Standard
 53
0
210
0
220
0
230
1
100
AcDbAlignedDimension
 13
-100
 23
49.50000000000002
 33
0
 14
100
 24
49.49999999999998
 34
0
100
AcDbRotatedDimension
  0
DIMENSION
  5
C0
100
AcDbEntity
  8
dimension
  6
ByLayer
 62
  256
370
   -1
100
AcDbDimension
  2
*D3
 10
-100
 20
-49.5
 30
0
 11
-101.875
 21
1.44404684065437e-14
 31
0
 70
   32
 71
    5
  3
Standard
 53
0
210
0
220
0
230
1
100
AcDbAlignedDimension
 13
-100
 23
49.50000000000001
 33
0
 14
-100
 24
-49.5
 34
0
 50
90
100
AcDbRotatedDimension
  0
DIMENSION
  5
C1
100
AcDbEntity
  8
dimension
  6
ByLayer
 62
  256
370
   -1
100
AcDbDimension
  2
*D4
 10
100
 20
38.50000000000365
 30
0
 11
59
 21
40.37500000000365
 31
0
 70
   32
 71
    5
  3
Standard
 53
0
210
0
220
0
230
1
100
AcDbAlignedDimension
 13
18
 23
32.5
 33
0
 14
100
 24
40.00000000000379
 34
0
100
AcDbRotatedDimension
  0
LINE
  5
C2
100
AcDbEntity
  8
intake
  6
ByLayer
 62
  256
370
   -1
100
AcDbLine
 10
-100
 20
-29.5
 11
100
 21
-29.5
  0
LINE
  5
C3
100
AcDbEntity
  8
intake
  6
ByLayer
 62
  256
370
   -1
100
AcDbLine
 10
-100
 20
-19.5
 11
100
 21
-19.5
  0
LINE
  5
C4
100
AcDbEntity
  8
intake
  6
ByLayer
 62
  256
370
   -1
100
AcDbLine
 10
-100
 20
-9.5
 11
100
 21
-9.5
  0
LINE
  5
C5
100
AcDbEntity
  8
intake
  6
ByLayer
 62
  256
370
   -1
100
AcDbLine
 10
-100
 20
0.5
 11
100
 21
0.5
  0
LINE
  5
C6
100
AcDbEntity
  8
intake
  6
ByLayer
 62
  256
370
   -1
100
AcDbLine
 10
-87
 20
12.55825000000023
 11
-15
 21
12.55825000000023
  0
LINE
  5
C7
100
AcDbEntity
  8
intake
  6
ByLayer
 62
  256
370
   -1
100
AcDbLine
 10
-87
 20
22.55825000000023
 11
-15
 21
22.55825000000023
  0
LINE
  5
C8
100
AcDbEntity
  8
intake
  6
ByLayer
 62
  256
370
   -1
100
AcDbLine
 10
-77
 20
49.50000000000001
 11
-77
 21
-49.5
  0
LINE
  5
C9
100
AcDbEntity
  8
intake
  6
ByLayer
 62
  256
370
   -1
100
AcDbLine
 10
-67
 20
49.50000000000001
 11
-67
 21
-49.5
  0
LINE
  5
CA
100
AcDbEntity
  8
intake
  6
ByLayer
 62
  256
370
   -1
100
AcDbLine
 10
-57
 20
49.50000000000001
 11
-57
 21
-49.5
  0
LINE
  5
CB
100
AcDbEntity
  8
intake
  6
ByLayer
 62
  256
370
   -1
100
AcDbLine
 10
-47
 20
49.50000000000001
 11
-47
 21
-49.5
  0
LINE
  5
CC
100
AcDbEntity
  8
intake
  6
ByLayer
 62
  256
370
   -1
100
AcDbLine
 10
-37
 20
49.50000000000001
 11
-37
 21
-49.5
  0
LINE
  5
CD
100
AcDbEntity
  8
intake
  6
ByLayer
 62
  256
370
   -1
100
AcDbLine
 10
-27
 20
49.50000000000001
 11
-27
 21
-49.5
  0
CIRCLE
  5
CE
100
AcDbEntity
  8
shape
  6
ByLayer
 62
  256
370
   -1
100
AcDbCircle
 10
45
 20
24.5
 40
6
  0
CIRCLE
  5
CF
100
AcDbEntity
  8
shape
  6
ByLayer
 62
  256
370
   -1
100
AcDbCircle
 10
-18
 20
44.5
 40
1.5
  0
LINE
  5
D0
100
AcDbEntity
  8
center
  6
ByLayer
 62
  256
370
   -1
100
AcDbLine
 10
-20.2
 20
44.5
 11
-14.2
 21
44.5
  0
CIRCLE
  5
D1
100
AcDbEntity
  8
shape
  6
ByLayer
 62
  256
370
   -1
100
AcDbCircle
 10
18
 20
44.5
 40
1.5
  0
LINE
  5
D2
100
AcDbEntity
  8
draft
  6
ByLayer
 62
  256
370
   -1
100
AcDbLine
 10
1.999999999999997
 20
-49.5
 11
2.000000000000003
 21
49.5
  0
LINE
  5
D3
100
AcDbEntity
  8
draft
  6
ByLayer
 62
  256
370
   -1
100
AcDbLine
 10
-11
 20
20
 11
11
 21
20
  0
CIRCLE
  5
D4
100
AcDbEntity
  8
shape
  6
ByLayer
 62
  256
370
   -1
100
AcDbCircle
 10
2
 20
20
 40
10
  0
LINE
  5
D5
100
AcDbEntity
  8
center
  6
ByLayer
 62
  256
370
   -1
100
AcDbLine
 10
-9
 20
20
 11
13
 21
20
  0
LINE
  5
D6
100
AcDbEntity
  8
draft
  6
ByLayer
 62
  256
370
   -1
100
AcDbLine
 10
-100
 20
-41.5
 11
99.99999999999999
 21
-41.5
  0
LINE
  5
D7
100
AcDbEntity
  8
draft
  6
ByLayer
 62
  256
370
   -1
100
AcDbLine
 10
-97.60660171779821
 20
-52.10660171779821
 11
-76.39339828220179
 21
-30.89339828220179
  0
DIMENSION
  5
D8
100
AcDbEntity
  8
dimension
  6
ByLayer
 62
  256
370
   -1
100
AcDbDimension
  2
*D5
 10
-18.74999999999999
 20
-42
 30
0
 11
-20.62499999999999
 21
-6
 31
0
 70
   32
 71
    5
  3
Standard
 53
0
210
0
220
0
230
1
100
AcDbAlignedDimension
 13
-19
 23
30
 33
0
 14
-18.74999999999999
 24
-42
 34
0
 50
90
100
AcDbRotatedDimension
  0
LINE
  5
D9
100
AcDbEntity
  8
center
  6
ByLayer
 62
  256
370
   -1
100
AcDbLine
 10
-77
 20
23.5582500000002
 11
-77
 21
26.125
  0
POINT
  5
DA
100
AcDbEntity
  8
dimension
  6
ByLayer
 62
  256
370
   -1
100
AcDbPoint
 10
0
 20
-2
  0
POINT
  5
DB
100
AcDbEntity
  8
dimension
  6
ByLayer
 62
  256
370
   -1
100
AcDbPoint
 10
0
 20
-2
  0
LINE
  5
DC
100
AcDbEntity
  8
center
  6
ByLayer
 62
  256
370
   -1
100
AcDbLine
 10
2
 20
30
 11
2
 21
6
  0
LINE
  5
DD
100
AcDbEntity
  8
draft
  6
ByLayer
 62
  256
370
   -1
100
AcDbLine
 10
-87
 20
8.5
 11
-15
 21
8.5
  0
DIMENSION
  5
DE
100
AcDbEntity
  8
dimension
  6
ByLayer
 62
  256
370
   -1
100
AcDbDimension
  2
*D6
 10
-15
 20
26.31499999999949
 30
0
 11
-51
 21
28.18999999999949
 31
0
 70
   32
 71
    5
  3
Standard
 53
0
210
0
220
0
230
1
100
AcDbAlignedDimension
 13
-87
 23
32
 33
0
 14
-15
 24
32.85275000000009
 34
0
100
AcDbRotatedDimension
  0
LINE
  5
DF
100
AcDbEntity
  8
center
  6
ByLayer
 62
  256
370
   -1
100
AcDbLine
 10
16.2
 20
44.5
 11
19.9
 21
44.5
  0
LINE
  5
E0
100
AcDbEntity
  8
draft
  6
ByLayer
 62
  256
370
   -1
100
AcDbLine
 10
75.00486908302302
 20
33.99999875221205
 11
74.49884058904129
 21
34.00025810958814
  0
LINE
  5
E1
100
AcDbEntity
  8
draft
  6
ByLayer
 62
  256
370
   -1
100
AcDbLine
 10
75.00538161807808
 20
34.99999862086595
 11
74.49935312409634
 21
35.00025797824204
  0
LINE
  5
E2
100
AcDbEntity
  8
draft
  6
ByLayer
 62
  256
370
   -1
100
AcDbLine
 10
76
 20
-49.50000000000002
 11
76
 21
49.49999999999998
  0
LINE
  5
E3
100
AcDbEntity
  8
shape
  6
ByLayer
 62
  256
370
   -1
100
AcDbLine
 10
74.00168115408943
 20
35.00279216996217
 11
76.0042534443578
 21
34.99374440359048
  0
LINE
  5
E4
100
AcDbEntity
  8
draft
  6
ByLayer
 62
  256
370
   -1
100
AcDbLine
 10
74.98553253812119
 20
15.00001101618814
 11
74.07164270680761
 21
15.00140277214896
  0
LINE
  5
E5
100
AcDbEntity
  8
draft
  6
ByLayer
 62
  256
370
   -1
100
AcDbLine
 10
74.9840096473971
 20
14.00001217578689
 11
74.07011981608352
 21
14.00140393174771
  0
CIRCLE
  5
E6
100
AcDbEntity
  8
draft
  6
ByLayer
 62
  256
370
   -1
100
AcDbCircle
 10
75
 20
24.5
 40
10
  0
LINE
  5
E7
100
AcDbEntity
  8
shape
  6
ByLayer
 62
  256
370
   -1
100
AcDbLine
 10
76.0042534443578
 20
34.99374440359048
 11
76.00204212581865
 21
34.44966891801355
  0
LINE
  5
E8
100
AcDbEntity
  8
shape
  6
ByLayer
 62
  256
370
   -1
100
AcDbLine
 10
74.00080067768758
 20
34.44995480966072
 11
74.00168115408943
 21
35.00279216996217
  0
LINE
  5
E9
100
AcDbEntity
  8
shape
  6
ByLayer
 62
  256
370
   -1
100
AcDbLine
 10
76.00001451705725
 20
13.99953603854799
 11
76.00000692815594
 21
14.5501263252421
  0
ARC
  5
EA
100
AcDbEntity
  8
shape
  6
ByLayer
 62
  256
370
   -1
100
AcDbCircle
 10
75.05361098493901
 20
24.49999784294031
 40
10.00550114600179
100
AcDbArc
 50
96.04002310015984
 51
263.9553662620496
  0
ARC
  5
EB
100
AcDbEntity
  8
shape
  6
ByLayer
 62
  256
370
   -1
100
AcDbCircle
 10
74.94679711209733
 20
24.49999998147723
 40
10.00546034381648
100
AcDbArc
 50
276.0423483667487
 51
83.9576915286403
  0
LINE
  5
EC
100
AcDbEntity
  8
draft
  6
ByLayer
 62
  256
370
   -1
100
AcDbLine
 10
74
 20
-49.50000000000002
 11
74
 21
49.49999999999998
  0
LINE
  5
ED
100
AcDbEntity
  8
center
  6
ByLayer
 62
  256
370
   -1
100
AcDbLine
 10
75
 20
32.5
 11
75
 21
0
  0
DIMENSION
  5
EE
100
AcDbEntity
  8
dimension
  6
ByLayer
 62
  256
370
   -1
100
AcDbDimension
  2
*D7
 10
100
 20
10.20378131886772
 30
0
 11
87.5
 21
12.07878131886772
 31
0
 70
   32
 71
    5
  3
Standard
 53
0
210
0
220
0
230
1
100
AcDbAlignedDimension
 13
75
 23
24.5
 33
0
 14
100
 24
24.5
 34
0
100
AcDbRotatedDimension
  0
DIMENSION
  5
EF
100
AcDbEntity
  8
dimension
  6
ByLayer
 62
  256
370
   -1
100
AcDbDimension
  2
*D8
 10
45
 20
10.20378131886772
 30
0
 11
60
 21
12.07878131886772
 31
0
 70
   32
 71
    5
  3
Standard
 53
0
210
0
220
0
230
1
100
AcDbAlignedDimension
 13
75
 23
18.5
 33
0
 14
45
 24
11.45687727030761
 34
0
100
AcDbRotatedDimension
  0
LINE
  5
F0
100
AcDbEntity
  8
shape
  6
ByLayer
 62
  256
370
   -1
100
AcDbLine
 10
73.99999999999999
 20
14.55
 11
74
 21
14
  0
LINE
  5
F1
100
AcDbEntity
  8
shape
  6
ByLayer
 62
  256
370
   -1
100
AcDbLine
 10
74
 20
14
 11
76.00001451705725
 21
13.99953603854799
  0
LINE
  5
F2
100
AcDbEntity
  8
draft
  6
ByLayer
 62
  256
370
   -1
100
AcDbLine
 10
-100
 20
-78
 11
100
 21
-78
  0
LINE
  5
F3
100
AcDbEntity
  8
shape
  6
ByLayer
 62
  256
370
   -1
100
AcDbLine
 10
-100
 20
49.5
 11
-100
 21
-78
  0
LINE
  5
F4
100
AcDbEntity
  8
shape
  6
ByLayer
 62
  256
370
   -1
100
AcDbLine
 10
100
 20
-78
 11
100
 21
49.49999999999998
  0
LINE
  5
F5
100
AcDbEntity
  8
shape
  6
ByLayer
 62
  256
370
   -1
100
AcDbLine
 10
-100
 20
-78
 11
100
 21
-78
  0
LINE
  5
F6
100
AcDbEntity
  8
center
  6
ByLayer
 62
  256
370
   -1
100
AcDbLine
 10
-87
 20
57.00000000000001
 11
-87
 21
-42
  0
LINE
  5
F7
100
AcDbEntity
  8
center
  6
ByLayer
 62
  256
370
   -1
100
AcDbLine
 10
-15
 20
57
 11
-15
 21
-42.00000000000001
  0
LINE
  5
F8
100
AcDbEntity
  8
draft
  6
ByLayer
 62
  256
370
   -1
100
AcDbLine
 10
91.06601717798212
 20
-138.0660171779821
 11
-121.0660171779821
 21
74.06601717798213
  0
LINE
  5
F9
100
AcDbEntity
  8
draft
  6
ByLayer
 62
  256
370
   -1
100
AcDbLine
 10
-193.0660171779821
 20
-138.0660171779821
 11
19.06601717798213
 21
74.0660171779821
  0
CIRCLE
  5
FA
100
AcDbEntity
  8
shape
  6
ByLayer
 62
  256
370
   -1
100
AcDbCircle
 10
-87
 20
-34
 40
3
  0
CIRCLE
  5
FB
100
AcDbEntity
  8
shape
  6
ByLayer
 62
  256
370
   -1
100
AcDbCircle
 10
-15
 20
-34
 40
3
  0
CIRCLE
  5
FC
100
AcDbEntity
  8
shape
  6
ByLayer
 62
  256
370
   -1
100
AcDbCircle
 10
-87
 20
38
 40
3
  0
CIRCLE
  5
FD
100
AcDbEntity
  8
shape
  6
ByLayer
 62
  256
370
   -1
100
AcDbCircle
 10
-15
 20
38
 40
3
  0
LINE
  5
FE
100
AcDbEntity
  8
center
  6
ByLayer
 62
  256
370
   -1
100
AcDbLine
 10
-100
 20
-34
 11
100
 21
-34
  0
LINE
  5
FF
100
AcDbEntity
  8
center
  6
ByLayer
 62
  256
370
   -1
100
AcDbLine
 10
-100
 20
38
 11
18
 21
38
  0
CIRCLE
  5
100
100
AcDbEntity
  8
shape
  6
ByLayer
 62
  256
370
   -1
100
AcDbCircle
 10
-77
 20
6
 40
3
  0
CIRCLE
  5
101
100
AcDbEntity
  8
shape
  6
ByLayer
 62
  256
370
   -1
100
AcDbCircle
 10
-67
 20
6
 40
3
  0
CIRCLE
  5
102
100
AcDbEntity
  8
shape
  6
ByLayer
 62
  256
370
   -1
100
AcDbCircle
 10
-57
 20
6
 40
3
  0
CIRCLE
  5
103
100
AcDbEntity
  8
shape
  6
ByLayer
 62
  256
370
   -1
100
AcDbCircle
 10
-47
 20
6
 40
3
  0
CIRCLE
  5
104
100
AcDbEntity
  8
shape
  6
ByLayer
 62
  256
370
   -1
100
AcDbCircle
 10
-37
 20
6
 40
3
  0
CIRCLE
  5
105
100
AcDbEntity
  8
shape
  6
ByLayer
 62
  256
370
   -1
100
AcDbCircle
 10
-27
 20
6
 40
3
  0
CIRCLE
  5
106
100
AcDbEntity
  8
shape
  6
ByLayer
 62
  256
370
   -1
100
AcDbCircle
 10
-27
 20
-4
 40
3
  0
CIRCLE
  5
107
100
AcDbEntity
  8
shape
  6
ByLayer
 62
  256
370
   -1
100
AcDbCircle
 10
-37
 20
-4
 40
3
  0
CIRCLE
  5
108
100
AcDbEntity
  8
shape
  6
ByLayer
 62
  256
370
   -1
100
AcDbCircle
 10
-47
 20
-4
 40
3
  0
CIRCLE
  5
109
100
AcDbEntity
  8
shape
  6
ByLayer
 62
  256
370
   -1
100
AcDbCircle
 10
-57
 20
-4
 40
3
  0
CIRCLE
  5
10A
100
AcDbEntity
  8
shape
  6
ByLayer
 62
  256
370
   -1
100
AcDbCircle
 10
-67
 20
-4
 40
3
  0
CIRCLE
  5
10B
100
AcDbEntity
  8
shape
  6
ByLayer
 62
  256
370
   -1
100
AcDbCircle
 10
-77
 20
-4
 40
3
  0
CIRCLE
  5
10C
100
AcDbEntity
  8
shape
  6
ByLayer
 62
  256
370
   -1
100
AcDbCircle
 10
-77
 20
-14
 40
3
  0
CIRCLE
  5
10D
100
AcDbEntity
  8
shape
  6
ByLayer
 62
  256
370
   -1
100
AcDbCircle
 10
-67
 20
-14
 40
3
  0
CIRCLE
  5
10E
100
AcDbEntity
  8
shape
  6
ByLayer
 62
  256
370
   -1
100
AcDbCircle
 10
-57
 20
-14
 40
3
  0
CIRCLE
  5
10F
100
AcDbEntity
  8
shape
  6
ByLayer
 62
  256
370
   -1
100
AcDbCircle
 10
-47
 20
-14
 40
3
  0
CIRCLE
  5
110
100
AcDbEntity
  8
shape
  6
ByLayer
 62
  256
370
   -1
100
AcDbCircle
 10
-37
 20
-14
 40
3
  0
CIRCLE
  5
111
100
AcDbEntity
  8
shape
  6
ByLayer
 62
  256
370
   -1
100
AcDbCircle
 10
-27
 20
-14
 40
3
  0
CIRCLE
  5
112
100
AcDbEntity
  8
shape
  6
ByLayer
 62
  256
370
   -1
100
AcDbCircle
 10
-27
 20
-24
 40
3
  0
CIRCLE
  5
113
100
AcDbEntity
  8
shape
  6
ByLayer
 62
  256
370
   -1
100
AcDbCircle
 10
-37
 20
-24
 40
3
  0
CIRCLE
  5
114
100
AcDbEntity
  8
shape
  6
ByLayer
 62
  256
370
   -1
100
AcDbCircle
 10
-47
 20
-24
 40
3
  0
CIRCLE
  5
115
100
AcDbEntity
  8
shape
  6
ByLayer
 62
  256
370
   -1
100
AcDbCircle
 10
-57
 20
-24
 40
3
  0
CIRCLE
  5
116
100
AcDbEntity
  8
shape
  6
ByLayer
 62
  256
370
   -1
100
AcDbCircle
 10
-67
 20
-24
 40
3
  0
CIRCLE
  5
117
100
AcDbEntity
  8
shape
  6
ByLayer
 62
  256
370
   -1
100
AcDbCircle
 10
-77
 20
-24
 40
3
  0
LINE
  5
118
100
AcDbEntity
  8
center
  6
ByLayer
 62
  256
370
   -1
100
AcDbLine
 10
-87
 20
6
 11
-15
 21
6
  0
LINE
  5
119
100
AcDbEntity
  8
center
  6
ByLayer
 62
  256
370
   -1
100
AcDbLine
 10
-87
 20
-4
 11
-15
 21
-4
  0
LINE
  5
11A
100
AcDbEntity
  8
center
  6
ByLayer
 62
  256
370
   -1
100
AcDbLine
 10
-15
 20
-14
 11
-87
 21
-14
  0
LINE
  5
11B
100
AcDbEntity
  8
center
  6
ByLayer
 62
  256
370
   -1
100
AcDbLine
 10
-87
 20
-24
 11
-15
 21
-24
  0
LINE
  5
11C
100
AcDbEntity
  8
center
  6
ByLayer
 62
  256
370
   -1
100
AcDbLine
 10
-77
 20
-34
 11
-77
 21
31.0582500000002
  0
LINE
  5
11D
100
AcDbEntity
  8
center
  6
ByLayer
 62
  256
370
   -1
100
AcDbLine
 10
-67
 20
33.625
 11
-67
 21
-34
  0
LINE
  5
11E
100
AcDbEntity
  8
center
  6
ByLayer
 62
  256
370
   -1
100
AcDbLine
 10
-57
 20
-34
 11
-57
 21
38
  0
LINE
  5
11F
100
AcDbEntity
  8
center
  6
ByLayer
 62
  256
370
   -1
100
AcDbLine
 10
-47
 20
38
 11
-47
 21
-34
  0
LINE
  5
120
100
AcDbEntity
  8
center
  6
ByLayer
 62
  256
370
   -1
100
AcDbLine
 10
-37
 20
-34
 11
-37
 21
38
  0
LINE
  5
121
100
AcDbEntity
  8
center
  6
ByLayer
 62
  256
370
   -1
100
AcDbLine
 10
-27
 20
38
 11
-27
 21
-34
  0
CIRCLE
  5
122
100
AcDbEntity
  8
shape
  6
ByLayer
 62
  256
370
   -1
100
AcDbCircle
 10
-77
 20
26
 40
3
  0
CIRCLE
  5
123
100
AcDbEntity
  8
shape
  6
ByLayer
 62
  256
370
   -1
100
AcDbCircle
 10
-67
 20
26
 40
3
  0
CIRCLE
  5
124
100
AcDbEntity
  8
shape
  6
ByLayer
 62
  256
370
   -1
100
AcDbCircle
 10
-57
 20
26
 40
3
  0
CIRCLE
  5
125
100
AcDbEntity
  8
shape
  6
ByLayer
 62
  256
370
   -1
100
AcDbCircle
 10
-47
 20
26
 40
3
  0
CIRCLE
  5
126
100
AcDbEntity
  8
shape
  6
ByLayer
 62
  256
370
   -1
100
AcDbCircle
 10
-37
 20
26
 40
3
  0
CIRCLE
  5
127
100
AcDbEntity
  8
shape
  6
ByLayer
 62
  256
370
   -1
100
AcDbCircle
 10
-27
 20
26
 40
3
  0
CIRCLE
  5
128
100
AcDbEntity
  8
shape
  6
ByLayer
 62
  256
370
   -1
100
AcDbCircle
 10
-27
 20
16
 40
3
  0
CIRCLE
  5
129
100
AcDbEntity
  8
shape
  6
ByLayer
 62
  256
370
   -1
100
AcDbCircle
 10
-37
 20
16
 40
3
  0
CIRCLE
  5
12A
100
AcDbEntity
  8
shape
  6
ByLayer
 62
  256
370
   -1
100
AcDbCircle
 10
-47
 20
16
 40
3
  0
CIRCLE
  5
12B
100
AcDbEntity
  8
shape
  6
ByLayer
 62
  256
370
   -1
100
AcDbCircle
 10
-57
 20
16
 40
3
  0
CIRCLE
  5
12C
100
AcDbEntity
  8
shape
  6
ByLayer
 62
  256
370
   -1
100
AcDbCircle
 10
-67
 20
16
 40
3
  0
CIRCLE
  5
12D
100
AcDbEntity
  8
shape
  6
ByLayer
 62
  256
370
   -1
100
AcDbCircle
 10
-77
 20
16
 40
2.999999999999853
  0
LINE
  5
12E
100
AcDbEntity
  8
center
  6
ByLayer
 62
  256
370
   -1
100
AcDbLine
 10
-87
 20
26
 11
-15
 21
26
  0
LINE
  5
12F
100
AcDbEntity
  8
center
  6
ByLayer
 62
  256
370
   -1
100
AcDbLine
 10
-15
 20
16
 11
-87
 21
16
  0
ENDSEC
  0
SECTION
  2
OBJECTS
  0
DICTIONARY
  5
C
330
0
100
AcDbDictionary
281
    1
  3
ACAD_GROUP
350
D
  0
DICTIONARY
  5
D
330
C
100
AcDbDictionary
281
    1
  0
PLOTSETTINGS
  5
130
100
AcDbPlotSettings
  6
1x1
 40
3.01
 41
3.01
 42
3.01
 43
2.96
  0
ENDSEC
  0
EOF
